<svg width="17" height="16" viewBox="0 0 17 16" fill="none" xmlns="http://www.w3.org/2000/svg">
<g clip-path="url(#clip0_27_9)">
<path d="M16.0277 8C16.0277 10.1217 15.1849 12.1566 13.6846 13.6569C12.1843 15.1571 10.1494 16 8.02771 16C5.90598 16 3.87115 15.1571 2.37086 13.6569C0.870565 12.1566 0.02771 10.1217 0.02771 8C0.02771 5.87827 0.870565 3.84344 2.37086 2.34315C3.87115 0.842855 5.90598 0 8.02771 0C10.1494 0 12.1843 0.842855 13.6846 2.34315C15.1849 3.84344 16.0277 5.87827 16.0277 8ZM8.52771 4.5C8.52771 4.36739 8.47503 4.24021 8.38126 4.14645C8.2875 4.05268 8.16032 4 8.02771 4C7.8951 4 7.76792 4.05268 7.67416 4.14645C7.58039 4.24021 7.52771 4.36739 7.52771 4.5V10.293L5.38171 8.146C5.28782 8.05211 5.16049 7.99937 5.02771 7.99937C4.89493 7.99937 4.7676 8.05211 4.67371 8.146C4.57982 8.23989 4.52708 8.36722 4.52708 8.5C4.52708 8.63278 4.57982 8.76011 4.67371 8.854L7.67371 11.854C7.72016 11.9006 7.77533 11.9375 7.83608 11.9627C7.89682 11.9879 7.96194 12.0009 8.02771 12.0009C8.09348 12.0009 8.1586 11.9879 8.21934 11.9627C8.28009 11.9375 8.33526 11.9006 8.38171 11.854L11.3817 8.854C11.4756 8.76011 11.5283 8.63278 11.5283 8.5C11.5283 8.36722 11.4756 8.23989 11.3817 8.146C11.2878 8.05211 11.1605 7.99937 11.0277 7.99937C10.8949 7.99937 10.7676 8.05211 10.6737 8.146L8.52771 10.293V4.5Z" fill="#E8E9EB"/>
</g>
<defs>
<clipPath id="clip0_27_9">
<rect width="16" height="16" fill="white" transform="translate(0.02771)"/>
</clipPath>
</defs>
</svg>
