<svg width="113" height="73" viewBox="0 0 113 73" fill="none" xmlns="http://www.w3.org/2000/svg">
<path d="M104.098 17.523C103.132 17.7406 102.229 18.1792 101.461 18.8044C100.693 19.4295 100.081 20.2242 99.6714 21.1261C99.2622 22.0279 99.0676 23.0123 99.1029 24.002C99.1383 24.9917 99.4025 25.9597 99.875 26.8301C100.347 27.7005 101.015 28.4495 101.826 29.0183C102.637 29.5871 103.568 29.9602 104.547 30.1084C105.527 30.2566 106.527 30.1758 107.469 29.8723C108.412 29.5688 109.272 29.0509 109.98 28.3593C107.253 28.9756 104.339 27.7457 102.939 25.1674C101.539 22.5881 102.095 19.4745 104.098 17.523Z" fill="#E8E9EB"/>
<path d="M5.08789 54.5352C5.12044 54.3398 5.57617 54.0957 6.45508 53.8027C7.36654 53.5098 8.48958 53.168 9.82422 52.7773C11.1589 52.3542 12.64 51.8822 14.2676 51.3613C15.8952 50.8079 17.4577 50.1895 18.9551 49.5059C20.485 48.8223 21.8522 48.0736 23.0566 47.2598C24.2611 46.4134 25.14 45.4857 25.6934 44.4766C25.6934 43.9557 25.3353 43.5488 24.6191 43.2559C23.903 42.9629 22.959 42.7188 21.7871 42.5234C20.6152 42.3281 19.2806 42.1654 17.7832 42.0352C16.2858 41.9049 14.7396 41.7259 13.1445 41.498C11.582 41.2702 10.0521 40.9772 8.55469 40.6191C7.05729 40.2611 5.72266 39.7728 4.55078 39.1543C3.37891 38.5033 2.4349 37.7057 1.71875 36.7617C1.0026 35.7852 0.644531 34.5807 0.644531 33.1484C0.644531 31.7487 0.953776 30.3327 1.57227 28.9004C2.22331 27.4355 3.06966 26.0195 4.11133 24.6523C5.15299 23.2852 6.34115 21.9993 7.67578 20.7949C9.04297 19.5905 10.459 18.5326 11.9238 17.6211C13.3887 16.7096 14.8372 15.9935 16.2695 15.4727C17.7018 14.9518 19.0365 14.6914 20.2734 14.6914C20.599 14.6914 20.9408 14.6914 21.2988 14.6914C21.6569 14.6589 21.9661 14.6751 22.2266 14.7402C22.5195 14.8053 22.7474 14.9518 22.9102 15.1797C23.1055 15.375 23.2031 15.6842 23.2031 16.1074C23.2031 17.1491 22.8613 17.8978 22.1777 18.3535C21.4941 18.8092 20.6641 19.0371 19.6875 19.0371L17.5879 18.3535C16.7741 18.3535 15.8464 18.5977 14.8047 19.0859C13.7956 19.5417 12.7702 20.1764 11.7285 20.9902C10.6868 21.7715 9.66146 22.6829 8.65234 23.7246C7.67578 24.7337 6.79688 25.7917 6.01562 26.8984C5.26693 27.9727 4.64844 29.0632 4.16016 30.1699C3.70443 31.2441 3.47656 32.2207 3.47656 33.0996C3.47656 34.2064 3.83464 35.1178 4.55078 35.834C5.26693 36.5176 6.21094 37.071 7.38281 37.4941C8.55469 37.9173 9.88932 38.2428 11.3867 38.4707C12.9167 38.666 14.4629 38.8451 16.0254 39.0078C17.5879 39.1706 19.1178 39.3496 20.6152 39.5449C22.1452 39.7402 23.4961 40.0169 24.668 40.375C25.8398 40.7005 26.7839 41.1725 27.5 41.791C28.2161 42.377 28.5742 43.1745 28.5742 44.1836C28.5742 45.1602 28.1836 46.1367 27.4023 47.1133C26.6211 48.0898 25.5957 49.0339 24.3262 49.9453C23.0566 50.8242 21.5918 51.6543 19.9316 52.4355C18.304 53.1842 16.6602 53.8353 15 54.3887C13.3398 54.9095 11.7122 55.3164 10.1172 55.6094C8.55469 55.9023 7.20378 56.0326 6.06445 56C5.73893 56 5.46224 55.8861 5.23438 55.6582C5.00651 55.4303 4.95768 55.056 5.08789 54.5352ZM31.4062 15.2773C31.6016 15.1471 31.7969 15.0169 31.9922 14.8867C32.2201 14.724 32.4479 14.6263 32.6758 14.5938C32.9036 14.5286 33.099 14.5449 33.2617 14.6426C33.457 14.7402 33.6198 14.9518 33.75 15.2773L34.043 55.5605C33.8802 55.8861 33.6686 56.0977 33.4082 56.1953C33.1478 56.3255 32.8874 56.3581 32.627 56.293C32.3665 56.2604 32.1224 56.1628 31.8945 56C31.6992 55.8372 31.569 55.6419 31.5039 55.4141L31.4062 15.2773ZM38.7793 42.9629C38.5514 43.1582 38.1445 43.2396 37.5586 43.207C37.0052 43.1419 36.4844 43.0117 35.9961 42.8164C35.5404 42.6211 35.2311 42.3607 35.0684 42.0352C34.9056 41.6771 35.1009 41.2702 35.6543 40.8145C35.8822 40.6191 36.1263 40.4889 36.3867 40.4238C36.6797 40.3262 36.9564 40.2448 37.2168 40.1797C37.5098 40.082 37.7376 39.9518 37.9004 39.7891C38.0957 39.6263 38.2096 39.3659 38.2422 39.0078C38.2747 37.543 38.3887 36.0456 38.584 34.5156C38.8118 32.9857 39.2188 31.6185 39.8047 30.4141C40.3906 29.2096 41.2207 28.2493 42.2949 27.5332C43.4017 26.8171 44.8503 26.5404 46.6406 26.7031C47.2917 26.7031 48.0241 26.8659 48.8379 27.1914C49.6517 27.4844 50.4329 27.8913 51.1816 28.4121C51.9303 28.9004 52.5814 29.5026 53.1348 30.2188C53.6882 30.9023 54.0299 31.651 54.1602 32.4648C54.388 32.7904 54.2578 33.1973 53.7695 33.6855C53.2812 34.1738 52.5977 34.7272 51.7188 35.3457C50.8398 35.9316 49.847 36.5339 48.7402 37.1523C47.6335 37.7708 46.5592 38.3568 45.5176 38.9102C44.5085 39.4635 43.6133 39.9518 42.832 40.375C42.0508 40.7982 41.5462 41.0911 41.3184 41.2539C41.5137 42.5234 41.7253 43.8581 41.9531 45.2578C42.181 46.6576 42.5065 47.9434 42.9297 49.1152C43.3529 50.2871 43.8737 51.2637 44.4922 52.0449C45.1432 52.7936 45.957 53.168 46.9336 53.168C48.3659 53.2656 49.5866 53.054 50.5957 52.5332C51.6374 52.0124 52.5 51.3288 53.1836 50.4824C53.8672 49.6361 54.4043 48.7083 54.7949 47.6992C55.2181 46.6901 55.5273 45.7298 55.7227 44.8184C55.9505 43.9069 56.097 43.1419 56.1621 42.5234C56.2598 41.8724 56.3411 41.5143 56.4062 41.4492C56.7643 41.2539 57.1712 41.2539 57.627 41.4492C58.0827 41.612 58.3431 42.084 58.4082 42.8652C58.4408 44.1348 58.1641 45.5833 57.5781 47.2109C56.9922 48.8385 56.1784 50.3359 55.1367 51.7031C54.1276 53.0703 52.9069 54.1771 51.4746 55.0234C50.0749 55.8372 48.5775 56.1139 46.9824 55.8535C45.3223 55.821 44.0039 55.349 43.0273 54.4375C42.0508 53.4935 41.2695 52.3704 40.6836 51.0684C40.1302 49.7337 39.7233 48.334 39.4629 46.8691C39.2025 45.4043 38.9746 44.1022 38.7793 42.9629ZM51.5723 32.4648C50.5306 31.0326 49.4727 30.1211 48.3984 29.7305C47.3242 29.3398 46.2174 29.2259 45.0781 29.3887C44.3945 29.4863 43.7923 29.8118 43.2715 30.3652C42.7507 30.8861 42.3275 31.5697 42.002 32.416C41.6764 33.2298 41.4486 34.1576 41.3184 35.1992C41.1882 36.2083 41.1719 37.25 41.2695 38.3242L51.5723 32.4648ZM61.8262 42.9629C61.5983 43.1582 61.1914 43.2396 60.6055 43.207C60.0521 43.1419 59.5312 43.0117 59.043 42.8164C58.5872 42.6211 58.278 42.3607 58.1152 42.0352C57.9525 41.6771 58.1478 41.2702 58.7012 40.8145C58.929 40.6191 59.1732 40.4889 59.4336 40.4238C59.7266 40.3262 60.0033 40.2448 60.2637 40.1797C60.5566 40.082 60.7845 39.9518 60.9473 39.7891C61.1426 39.6263 61.2565 39.3659 61.2891 39.0078C61.3216 37.543 61.4355 36.0456 61.6309 34.5156C61.8587 32.9857 62.2656 31.6185 62.8516 30.4141C63.4375 29.2096 64.2676 28.2493 65.3418 27.5332C66.4486 26.8171 67.8971 26.5404 69.6875 26.7031C70.3385 26.7031 71.071 26.8659 71.8848 27.1914C72.6986 27.4844 73.4798 27.8913 74.2285 28.4121C74.9772 28.9004 75.6283 29.5026 76.1816 30.2188C76.735 30.9023 77.0768 31.651 77.207 32.4648C77.4349 32.7904 77.3047 33.1973 76.8164 33.6855C76.3281 34.1738 75.6445 34.7272 74.7656 35.3457C73.8867 35.9316 72.8939 36.5339 71.7871 37.1523C70.6803 37.7708 69.6061 38.3568 68.5645 38.9102C67.5553 39.4635 66.6602 39.9518 65.8789 40.375C65.0977 40.7982 64.5931 41.0911 64.3652 41.2539C64.5605 42.5234 64.7721 43.8581 65 45.2578C65.2279 46.6576 65.5534 47.9434 65.9766 49.1152C66.3997 50.2871 66.9206 51.2637 67.5391 52.0449C68.1901 52.7936 69.0039 53.168 69.9805 53.168C71.4128 53.2656 72.6335 53.054 73.6426 52.5332C74.6842 52.0124 75.5469 51.3288 76.2305 50.4824C76.9141 49.6361 77.4512 48.7083 77.8418 47.6992C78.265 46.6901 78.5742 45.7298 78.7695 44.8184C78.9974 43.9069 79.1439 43.1419 79.209 42.5234C79.3066 41.8724 79.388 41.5143 79.4531 41.4492C79.8112 41.2539 80.2181 41.2539 80.6738 41.4492C81.1296 41.612 81.39 42.084 81.4551 42.8652C81.4876 44.1348 81.2109 45.5833 80.625 47.2109C80.0391 48.8385 79.2253 50.3359 78.1836 51.7031C77.1745 53.0703 75.9538 54.1771 74.5215 55.0234C73.1217 55.8372 71.6243 56.1139 70.0293 55.8535C68.3691 55.821 67.0508 55.349 66.0742 54.4375C65.0977 53.4935 64.3164 52.3704 63.7305 51.0684C63.1771 49.7337 62.7702 48.334 62.5098 46.8691C62.2493 45.4043 62.0215 44.1022 61.8262 42.9629ZM74.6191 32.4648C73.5775 31.0326 72.5195 30.1211 71.4453 29.7305C70.3711 29.3398 69.2643 29.2259 68.125 29.3887C67.4414 29.4863 66.8392 29.8118 66.3184 30.3652C65.7975 30.8861 65.3743 31.5697 65.0488 32.416C64.7233 33.2298 64.4954 34.1576 64.3652 35.1992C64.235 36.2083 64.2188 37.25 64.3164 38.3242L74.6191 32.4648ZM82.9199 70.4531C83.2129 66.4167 83.4245 63.0638 83.5547 60.3945C83.6849 57.7253 83.7663 55.4466 83.7988 53.5586C83.8639 51.638 83.8802 49.9453 83.8477 48.4805C83.8151 47.0156 83.7663 45.4694 83.7012 43.8418C83.6361 42.1816 83.5547 40.2936 83.457 38.1777C83.3919 36.0293 83.3268 33.3275 83.2617 30.0723C83.3268 29.7142 83.457 29.4049 83.6523 29.1445C83.8477 28.8516 84.0592 28.6562 84.2871 28.5586C84.5475 28.4284 84.8242 28.4284 85.1172 28.5586C85.4102 28.6888 85.7031 28.9818 85.9961 29.4375L85.8496 35.7852C86.9564 34.3529 88.1934 33.0508 89.5605 31.8789C90.9603 30.707 92.36 29.7467 93.7598 28.998C95.1921 28.2168 96.5755 27.6797 97.9102 27.3867C99.2448 27.0612 100.4 27.0286 101.377 27.2891C102.386 27.5495 103.151 28.1354 103.672 29.0469C104.225 29.9258 104.421 31.179 104.258 32.8066C104.128 34.2389 103.688 35.7852 102.939 37.4453C102.191 39.0729 101.263 40.7005 100.156 42.3281C99.082 43.9232 97.8939 45.4694 96.5918 46.9668C95.2897 48.4642 94.0202 49.7826 92.7832 50.9219C91.5462 52.0612 90.3906 52.9889 89.3164 53.7051C88.2747 54.3887 87.4447 54.7305 86.8262 54.7305C86.7936 55.1862 86.7448 55.821 86.6797 56.6348C86.6146 57.4811 86.5495 58.4251 86.4844 59.4668C86.4193 60.541 86.3379 61.6478 86.2402 62.7871C86.1751 63.9264 86.11 65.0169 86.0449 66.0586C85.9798 67.1003 85.9147 68.0443 85.8496 68.8906C85.7845 69.737 85.752 70.3717 85.752 70.7949C85.5892 70.9577 85.3939 71.1042 85.166 71.2344C84.9382 71.3646 84.694 71.446 84.4336 71.4785C84.1732 71.5111 83.9128 71.446 83.6523 71.2832C83.3919 71.153 83.1478 70.8763 82.9199 70.4531ZM86.582 51.9473C87.6562 51.5241 88.9421 50.6777 90.4395 49.4082C91.9368 48.1061 93.418 46.5599 94.8828 44.7695C96.3802 42.9466 97.7311 40.9609 98.9355 38.8125C100.14 36.6641 100.986 34.5319 101.475 32.416C101.279 31.3743 100.84 30.6908 100.156 30.3652C99.4727 30.0397 98.6589 29.9746 97.7148 30.1699C96.8034 30.3327 95.7943 30.7396 94.6875 31.3906C93.5807 32.0091 92.5065 32.7578 91.4648 33.6367C90.4557 34.4831 89.5117 35.4271 88.6328 36.4688C87.7539 37.5104 87.0703 38.5358 86.582 39.5449V51.9473Z" fill="#E8E9EB"/>
<path d="M13.1316 61.096V70H12.3156V68.752C12.0596 69.176 11.7196 69.5 11.2956 69.724C10.8796 69.948 10.4076 70.06 9.87959 70.06C9.28759 70.06 8.75159 69.924 8.27159 69.652C7.79159 69.38 7.41559 69 7.14359 68.512C6.87159 68.024 6.73559 67.468 6.73559 66.844C6.73559 66.22 6.87159 65.664 7.14359 65.176C7.41559 64.688 7.79159 64.312 8.27159 64.048C8.75159 63.776 9.28759 63.64 9.87959 63.64C10.3916 63.64 10.8516 63.748 11.2596 63.964C11.6756 64.172 12.0156 64.48 12.2796 64.888V61.096H13.1316ZM9.95159 69.304C10.3916 69.304 10.7876 69.204 11.1396 69.004C11.4996 68.796 11.7796 68.504 11.9796 68.128C12.1876 67.752 12.2916 67.324 12.2916 66.844C12.2916 66.364 12.1876 65.936 11.9796 65.56C11.7796 65.184 11.4996 64.896 11.1396 64.696C10.7876 64.488 10.3916 64.384 9.95159 64.384C9.50359 64.384 9.09959 64.488 8.73959 64.696C8.38759 64.896 8.10759 65.184 7.89959 65.56C7.69959 65.936 7.59959 66.364 7.59959 66.844C7.59959 67.324 7.69959 67.752 7.89959 68.128C8.10759 68.504 8.38759 68.796 8.73959 69.004C9.09959 69.204 9.50359 69.304 9.95159 69.304ZM18.0844 70.06C17.4764 70.06 16.9284 69.924 16.4404 69.652C15.9524 69.372 15.5684 68.988 15.2884 68.5C15.0084 68.012 14.8684 67.46 14.8684 66.844C14.8684 66.228 15.0084 65.676 15.2884 65.188C15.5684 64.7 15.9524 64.32 16.4404 64.048C16.9284 63.776 17.4764 63.64 18.0844 63.64C18.6924 63.64 19.2404 63.776 19.7284 64.048C20.2164 64.32 20.5964 64.7 20.8684 65.188C21.1484 65.676 21.2884 66.228 21.2884 66.844C21.2884 67.46 21.1484 68.012 20.8684 68.5C20.5964 68.988 20.2164 69.372 19.7284 69.652C19.2404 69.924 18.6924 70.06 18.0844 70.06ZM18.0844 69.304C18.5324 69.304 18.9324 69.204 19.2844 69.004C19.6444 68.796 19.9244 68.504 20.1244 68.128C20.3244 67.752 20.4244 67.324 20.4244 66.844C20.4244 66.364 20.3244 65.936 20.1244 65.56C19.9244 65.184 19.6444 64.896 19.2844 64.696C18.9324 64.488 18.5324 64.384 18.0844 64.384C17.6364 64.384 17.2324 64.488 16.8724 64.696C16.5204 64.896 16.2404 65.184 16.0324 65.56C15.8324 65.936 15.7324 66.364 15.7324 66.844C15.7324 67.324 15.8324 67.752 16.0324 68.128C16.2404 68.504 16.5204 68.796 16.8724 69.004C17.2324 69.204 17.6364 69.304 18.0844 69.304ZM26.2438 63.64C27.0358 63.64 27.6638 63.872 28.1278 64.336C28.5998 64.792 28.8358 65.46 28.8358 66.34V70H27.9838V66.424C27.9838 65.768 27.8198 65.268 27.4918 64.924C27.1638 64.58 26.6958 64.408 26.0878 64.408C25.4078 64.408 24.8678 64.612 24.4678 65.02C24.0758 65.42 23.8798 65.976 23.8798 66.688V70H23.0278V63.688H23.8438V64.852C24.0758 64.468 24.3958 64.172 24.8038 63.964C25.2198 63.748 25.6998 63.64 26.2438 63.64ZM31.1512 61.036C31.3352 61.036 31.4872 61.1 31.6072 61.228C31.7272 61.348 31.7872 61.5 31.7872 61.684C31.7872 61.78 31.7712 61.884 31.7392 61.996C31.7152 62.1 31.6792 62.224 31.6312 62.368L31.1152 64.024H30.5392L30.9592 62.296C30.8232 62.256 30.7152 62.184 30.6352 62.08C30.5552 61.968 30.5152 61.836 30.5152 61.684C30.5152 61.492 30.5752 61.336 30.6952 61.216C30.8152 61.096 30.9672 61.036 31.1512 61.036ZM36.7062 69.616C36.5462 69.76 36.3502 69.872 36.1182 69.952C35.8862 70.024 35.6422 70.06 35.3862 70.06C34.7942 70.06 34.3382 69.9 34.0182 69.58C33.6982 69.26 33.5382 68.808 33.5382 68.224V62.308H34.3902V63.688H36.2982V64.408H34.3902V68.176C34.3902 68.552 34.4822 68.84 34.6662 69.04C34.8502 69.232 35.1182 69.328 35.4702 69.328C35.8542 69.328 36.1662 69.22 36.4062 69.004L36.7062 69.616ZM43.1671 70.06C42.5991 70.06 42.1591 69.9 41.8471 69.58C41.5431 69.26 41.3911 68.816 41.3911 68.248V61.096H42.2431V68.176C42.2431 68.552 42.3311 68.84 42.5071 69.04C42.6831 69.232 42.9471 69.328 43.2991 69.328C43.5231 69.328 43.7151 69.292 43.8751 69.22L43.9351 69.928C43.6871 70.016 43.4311 70.06 43.1671 70.06ZM47.6771 69.304C48.0691 69.304 48.4291 69.236 48.7571 69.1C49.0931 68.956 49.3771 68.748 49.6091 68.476L50.0891 69.028C49.8091 69.364 49.4611 69.62 49.0451 69.796C48.6291 69.972 48.1691 70.06 47.6651 70.06C47.0171 70.06 46.4411 69.924 45.9371 69.652C45.4331 69.372 45.0411 68.988 44.7611 68.5C44.4811 68.012 44.3411 67.46 44.3411 66.844C44.3411 66.228 44.4731 65.676 44.7371 65.188C45.0091 64.7 45.3811 64.32 45.8531 64.048C46.3251 63.776 46.8611 63.64 47.4611 63.64C48.0211 63.64 48.5251 63.768 48.9731 64.024C49.4291 64.28 49.7891 64.636 50.0531 65.092C50.3251 65.548 50.4691 66.068 50.4851 66.652L45.3011 67.66C45.4611 68.172 45.7491 68.576 46.1651 68.872C46.5891 69.16 47.0931 69.304 47.6771 69.304ZM47.4611 64.372C47.0211 64.372 46.6251 64.476 46.2731 64.684C45.9291 64.884 45.6571 65.168 45.4571 65.536C45.2651 65.896 45.1691 66.312 45.1691 66.784C45.1691 66.904 45.1731 66.992 45.1811 67.048L49.6331 66.184C49.5371 65.656 49.2931 65.224 48.9011 64.888C48.5091 64.544 48.0291 64.372 47.4611 64.372ZM55.3273 69.616C55.1673 69.76 54.9713 69.872 54.7393 69.952C54.5073 70.024 54.2633 70.06 54.0073 70.06C53.4153 70.06 52.9593 69.9 52.6393 69.58C52.3193 69.26 52.1593 68.808 52.1593 68.224V62.308H53.0113V63.688H54.9193V64.408H53.0113V68.176C53.0113 68.552 53.1033 68.84 53.2873 69.04C53.4713 69.232 53.7393 69.328 54.0913 69.328C54.4753 69.328 54.7873 69.22 55.0273 69.004L55.3273 69.616ZM67.8842 63.64C68.6762 63.64 69.2962 63.868 69.7442 64.324C70.2002 64.78 70.4282 65.452 70.4282 66.34V70H69.5762V66.424C69.5762 65.768 69.4162 65.268 69.0962 64.924C68.7842 64.58 68.3402 64.408 67.7642 64.408C67.1082 64.408 66.5922 64.612 66.2162 65.02C65.8402 65.42 65.6522 65.976 65.6522 66.688V70H64.8002V66.424C64.8002 65.768 64.6402 65.268 64.3202 64.924C64.0082 64.58 63.5602 64.408 62.9762 64.408C62.3282 64.408 61.8122 64.612 61.4282 65.02C61.0522 65.42 60.8642 65.976 60.8642 66.688V70H60.0122V63.688H60.8282V64.84C61.0522 64.456 61.3642 64.16 61.7642 63.952C62.1642 63.744 62.6242 63.64 63.1442 63.64C63.6722 63.64 64.1282 63.752 64.5122 63.976C64.9042 64.2 65.1962 64.532 65.3882 64.972C65.6202 64.556 65.9522 64.232 66.3842 64C66.8242 63.76 67.3242 63.64 67.8842 63.64ZM75.4622 69.304C75.8542 69.304 76.2142 69.236 76.5422 69.1C76.8782 68.956 77.1622 68.748 77.3942 68.476L77.8742 69.028C77.5942 69.364 77.2462 69.62 76.8302 69.796C76.4142 69.972 75.9542 70.06 75.4502 70.06C74.8022 70.06 74.2262 69.924 73.7222 69.652C73.2182 69.372 72.8262 68.988 72.5462 68.5C72.2662 68.012 72.1262 67.46 72.1262 66.844C72.1262 66.228 72.2582 65.676 72.5222 65.188C72.7942 64.7 73.1662 64.32 73.6382 64.048C74.1102 63.776 74.6462 63.64 75.2462 63.64C75.8062 63.64 76.3102 63.768 76.7582 64.024C77.2142 64.28 77.5742 64.636 77.8382 65.092C78.1102 65.548 78.2542 66.068 78.2702 66.652L73.0862 67.66C73.2462 68.172 73.5342 68.576 73.9502 68.872C74.3742 69.16 74.8782 69.304 75.4622 69.304ZM75.2462 64.372C74.8062 64.372 74.4102 64.476 74.0582 64.684C73.7142 64.884 73.4422 65.168 73.2422 65.536C73.0502 65.896 72.9542 66.312 72.9542 66.784C72.9542 66.904 72.9582 66.992 72.9662 67.048L77.4182 66.184C77.3222 65.656 77.0782 65.224 76.6862 64.888C76.2942 64.544 75.8142 64.372 75.2462 64.372Z" fill="#E8E9EB"/>
</svg>
