<svg width="112" height="145" viewBox="0 0 112 145" fill="none" xmlns="http://www.w3.org/2000/svg">
<g clip-path="url(#clip0_27_244)">
<path d="M97.1446 138.825C97.1184 138.747 97.0702 138.68 97.0059 138.63C96.9417 138.58 96.8641 138.549 96.7829 138.543L94.4075 138.354L93.3796 136.079C93.3469 136.005 93.2936 135.943 93.2263 135.9C93.1589 135.856 93.0804 135.833 93.0001 135.833C92.9199 135.832 92.8413 135.856 92.7739 135.899C92.7066 135.943 92.6532 136.005 92.6204 136.078L91.5925 138.354L89.2171 138.543C89.1373 138.549 89.061 138.578 88.9973 138.627C88.9337 138.676 88.8853 138.741 88.8581 138.817C88.8309 138.892 88.826 138.974 88.8439 139.052C88.8618 139.13 88.9018 139.201 88.9592 139.257L90.7146 140.968L90.0938 143.656C90.0749 143.738 90.0809 143.823 90.1111 143.901C90.1413 143.979 90.1941 144.046 90.2628 144.093C90.3316 144.141 90.413 144.166 90.4965 144.167C90.58 144.168 90.6618 144.143 90.7313 144.097L93 142.584L95.2688 144.097C95.3397 144.144 95.4234 144.168 95.5086 144.166C95.5938 144.164 95.6763 144.136 95.7452 144.086C95.814 144.036 95.8658 143.966 95.8937 143.885C95.9215 143.805 95.924 143.718 95.9008 143.636L95.1388 140.969L97.0288 139.268C97.1525 139.157 97.1979 138.983 97.1446 138.825Z" fill="#E8E9EB"/>
</g>
<g filter="url(#filter0_d_27_244)">
<path d="M48.8472 8.92342C41.6483 10.5394 34.9232 13.7966 29.2001 18.4392C23.477 23.0818 18.9116 28.9835 15.8625 35.6807C12.8133 42.378 11.3634 49.6886 11.6266 57.0384C11.8899 64.3882 13.859 71.5771 17.3794 78.0407C20.8999 84.5043 25.8758 90.0666 31.9165 94.2907C37.9571 98.5149 44.8981 101.286 52.1943 102.386C59.4905 103.487 66.9433 102.886 73.9675 100.633C80.9917 98.3788 87.3961 94.5328 92.6777 89.3967C72.3582 93.9737 50.6407 84.8404 40.2116 65.6927C29.779 46.5382 33.9193 23.4155 48.8472 8.92342Z" fill="#E8E9EB"/>
</g>
<path d="M93 93.5V135" stroke="#E8E9EB" stroke-dasharray="4 4"/>
<defs>
<filter id="filter0_d_27_244" x="3.59627" y="0.92342" width="105.081" height="117.998" filterUnits="userSpaceOnUse" color-interpolation-filters="sRGB">
<feFlood flood-opacity="0" result="BackgroundImageFix"/>
<feColorMatrix in="SourceAlpha" type="matrix" values="0 0 0 0 0 0 0 0 0 0 0 0 0 0 0 0 0 0 127 0" result="hardAlpha"/>
<feOffset dx="4" dy="4"/>
<feGaussianBlur stdDeviation="6"/>
<feComposite in2="hardAlpha" operator="out"/>
<feColorMatrix type="matrix" values="0 0 0 0 0 0 0 0 0 0 0 0 0 0 0 0 0 0 0.25 0"/>
<feBlend mode="normal" in2="BackgroundImageFix" result="effect1_dropShadow_27_244"/>
<feBlend mode="normal" in="SourceGraphic" in2="effect1_dropShadow_27_244" result="shape"/>
</filter>
<clipPath id="clip0_27_244">
<rect width="10" height="10" fill="white" transform="translate(88 135)"/>
</clipPath>
</defs>
</svg>
